<svg enable-background="new 0 0 375.3 339.3" viewBox="0 0 375.3 339.3" xmlns="http://www.w3.org/2000/svg"><path d="m11.2 0c-6.2 0-11.2 5-11.2 11.2v328.1h328.1c6.2 0 11.2-5 11.2-11.2v-328.1z" fill="#b7b19a"/><path d="m55.3 154.3c4 4.3 9.7 7.3 16 7.3 7.5-.1 12.9-2.9 12.9-8.1 0-12-34.7-.4-34.7-22.4 0-9.6 10-16.2 22.3-16.2 8.9 0 16.1 2.8 21.5 8.2l-7.4 6.6c-4.9-4.8-9.4-6.4-14.6-6.4-8.2 0-11.3 4-11.3 7.3 0 12.1 34.7 0 34.7 22.4 0 11.2-11.4 18-23.8 18-7.6 0-16.3-2.8-23.1-10z" fill="#fff"/><path d="m122 162.6c7.8 0 13.5-6 13.5-13.5s-5.7-13.5-13.5-13.5-13.5 6-13.5 13.5 5.7 13.5 13.5 13.5m0-35.4c14.5 0 22.9 10.9 22.9 21.9s-8.4 21.9-22.9 21.9-22.9-10.9-22.9-21.9 8.4-21.9 22.9-21.9" fill="#fff"/><path d="m182.2 141.9c-2.4-3.7-5.7-6.3-10.8-6.3-7.8 0-13.5 6-13.5 13.5s5.7 13.5 13.5 13.5c4.9 0 8.4-2.5 10.8-6.3l7.8 4.6c-3.7 5.8-10.7 10-18.6 10-14.5 0-22.9-10.9-22.9-21.9s8.4-21.9 22.9-21.9c8.8 0 14.6 4.2 18.6 10z" fill="#fff"/><path d="m196.1 128.3h8.4v4.6h.2c1.5-3.4 4.5-5.7 8.1-5.7 2 0 3.7.5 4.9 1.3l-3.2 8.8c-.9-.7-2.5-1.2-3.3-1.2-3.3 0-6.2 2.5-6.2 6.3v27.5h-8.9z" fill="#fff"/><path d="m241.1 162.6c7 0 13-6 13-13.5s-6-13.5-13-13.5c-7.2 0-13.2 6-13.2 13.5s6 13.5 13.2 13.5m12.7 2.2h-.2c-2.8 3.8-8 6.2-13.6 6.2-13.6 0-21.5-11.2-21.5-21.9 0-10.2 8.5-21.9 22-21.9 6.2 0 10.9 2.7 13.2 6.2h.2v-5.1h8.9v41.5h-8.9v-5z" fill="#fff"/><path d="m272.5 143.9c0-10.6 7-16.6 15.2-16.6 6.3 0 10.8 3 12.4 7.4h.2c1.6-4.4 6.2-7.4 12.4-7.4 8.2 0 15.2 6.1 15.2 16.6v26h-8.9v-25.9c0-5-3.2-7.8-6.9-7.8-4.3 0-7.5 2.6-7.5 9v24.7h-8.9v-24.7c0-6.4-3.2-9-7.5-9-3.7 0-6.9 2.8-6.9 7.8v25.9h-8.9v-26z" fill="#fff"/><g fill="#414042"><path d="m19.6 212.6h19.5c4.4 0 7.7-2.9 7.7-6.7s-3.2-6.7-7.7-6.7h-19.5zm0-22.8h17.6c4.3 0 6.7-2.8 6.7-6.1 0-3.2-2.3-6-6.7-6h-17.6zm-9.9 9.3v-9.4-21.4h28.6c8.2 0 15.5 4.8 15.5 14.3 0 4.9-2.6 8.9-6.6 10.7 5.5 1.8 9.6 6.2 9.6 13.1 0 9.6-7.1 15.5-16.5 15.5h-30.6z"/><path d="m82.4 214.7c7 0 13-6 13-13.4s-6-13.4-13-13.4c-7.2 0-13.2 6-13.2 13.4s6 13.4 13.2 13.4m12.6 2.2h-.2c-2.8 3.8-7.9 6.1-13.6 6.1-13.6 0-21.4-11.1-21.4-21.8 0-10.2 8.4-21.8 21.9-21.8 6.1 0 10.8 2.6 13.1 6.1h.2v-5h8.9v41.3h-8.9z"/><path d="m113.6 180.6h8.9v5.2h.2c2.5-3.8 7-6.3 12.6-6.3 8.7 0 16 7.3 16 17.5v24.9h-8.9v-23c0-7.5-3.9-10.6-9.8-10.6-5.7 0-10.2 3.7-10.2 10.4v23.1h-8.9v-41.2z"/><path d="m210.2 180.6h8.9v23.1c0 6.1 4.4 10.4 10 10.4 5.5 0 10-4.3 10-10.4v-23.1h8.9v23.9c0 11.6-9 18.5-18.9 18.5-9.8 0-18.9-6.9-18.9-18.5z"/><path d="m289.1 197c-1.9-6.3-6.6-9.6-12.2-9.6s-10.2 3.5-11.7 9.6zm8.2 16c-5 6.2-11.8 10-19.2 10.1-14.4 0-22.8-10.8-22.8-21.8 0-10.9 8.4-21.8 22.8-21.8 8.6 0 21.4 7.1 21.4 23.2v1.6h-34.3c.5 6.3 6.4 10.8 12.6 10.8 4.8 0 8.9-2.3 11.9-6.4z"/><path d="m201.7 194.1c0-8.1-6.6-14.8-14.8-14.8h-13c-8.1 0-14.8 6.6-14.8 14.8v13.1c0 8.1 6.6 14.8 14.8 14.8h13c8.1 0 14.8-6.6 14.8-14.8zm-9.4 13.3c0 2.9-2.3 5.2-5.2 5.2h-13.4c-2.9 0-5.2-2.3-5.2-5.2v-13.4c0-2.9 2.3-5.2 5.2-5.2h13.4c2.9 0 5.2 2.3 5.2 5.2z"/><path d="m258.4 250.2c-35-7.1-55.3-21.9-80.1-46.2 11.4 27.2 41.9 53.4 82.5 60.5 51.7 9 92.5-5.6 114.5-40.8-25 25.4-70.6 35.9-116.9 26.5"/><path d="m174.9 203.4h9.5c9.3 14.9 26.3 27.7 26.3 27.7l-24.9-10.9z"/></g></svg>