<?xml version="1.0" encoding="utf-8"?>
<!-- Generator: Adobe Illustrator 24.0.0, SVG Export Plug-In . SVG Version: 6.00 Build 0)  -->
<svg version="1.1" id="katman_1" xmlns="http://www.w3.org/2000/svg" xmlns:xlink="http://www.w3.org/1999/xlink" x="0px" y="0px"
	 viewBox="0 0 652 652" style="enable-background:new 0 0 652 652;" xml:space="preserve">
<style type="text/css">
	.st0{clip-path:url(#SVGID_2_);}
	.st1{clip-path:url(#SVGID_4_);fill:#51556A;}
	.st2{clip-path:url(#SVGID_6_);fill:url(#SVGID_7_);}
	.st3{clip-path:url(#SVGID_9_);fill:url(#SVGID_10_);}
	.st4{clip-path:url(#SVGID_12_);}
	.st5{clip-path:url(#SVGID_14_);}
	.st6{clip-path:url(#SVGID_16_);fill:url(#SVGID_17_);}
	.st7{opacity:0.8;clip-path:url(#SVGID_12_);}
	.st8{clip-path:url(#SVGID_19_);}
	.st9{filter:url(#Adobe_OpacityMaskFilter);}
	.st10{clip-path:url(#SVGID_21_);}
	.st11{enable-background:new    ;}
	.st12{clip-path:url(#SVGID_24_);}
	.st13{clip-path:url(#SVGID_26_);fill:url(#SVGID_27_);}
	.st14{clip-path:url(#SVGID_21_);mask:url(#SVGID_22_);}
	.st15{clip-path:url(#SVGID_29_);}
	.st16{clip-path:url(#SVGID_31_);fill:url(#SVGID_32_);}
	.st17{opacity:0.5;clip-path:url(#SVGID_12_);}
	.st18{clip-path:url(#SVGID_34_);}
	.st19{clip-path:url(#SVGID_36_);fill:url(#SVGID_37_);}
	.st20{clip-path:url(#SVGID_39_);}
	.st21{clip-path:url(#SVGID_41_);fill:url(#SVGID_42_);}
	.st22{clip-path:url(#SVGID_44_);fill:url(#SVGID_45_);}
	.st23{clip-path:url(#SVGID_47_);fill:url(#SVGID_48_);}
</style>
<g>
	<defs>
		<rect id="SVGID_1_" width="652" height="652"/>
	</defs>
	<clipPath id="SVGID_2_">
		<use xlink:href="#SVGID_1_"  style="overflow:visible;"/>
	</clipPath>
	<g class="st0">
		<defs>
			<rect id="SVGID_3_" y="0" width="652" height="652"/>
		</defs>
		<clipPath id="SVGID_4_">
			<use xlink:href="#SVGID_3_"  style="overflow:visible;"/>
		</clipPath>
		<path class="st1" d="M350.4,305.9v16.9l38.4,0l-2.3,11h-36v24.2h-17.5v-63.2h61.8l-2.3,11H350.4z M563.1,358.1H543l-6.1-12.8
			h-33.7l-5.8,12.8h-12.7l29.7-63.2h11.8c4.5,0,6.2,1.8,8.5,6.5C536.9,305.9,563.1,358.1,563.1,358.1 M531.7,334.3l-11.9-25.2
			l-11.5,25.2H531.7z M324.2,358.1h-20.1l-6-12.8h-33.7l-5.8,12.8h-12.7l29.8-63.2h11.8c4.5,0,6.2,1.8,8.5,6.5
			C298,305.9,324.2,358.1,324.2,358.1 M292.8,334.3l-11.9-25.2l-11.5,25.2H292.8z M209,360.1c22.6,0,33-8.3,33-20.3
			c0-10.5-9.5-15.9-30.2-21.5c-12.4-3.4-20.1-4.1-20.1-8.3c0-4,7.2-6.1,18.3-5.6c13.9,0.7,22.8,6.5,22.8,6.5l5.5-8.8
			c0,0-12.5-9.3-32.5-9.3c-21.7,0-33.1,6.6-33.1,18.8c0,12,13,16.2,31.9,21.6c11.7,3.3,18.4,4,18.4,8.4c0,3.4-3.5,7.7-19,7
			c-14.9-0.7-27.8-9.4-27.8-9.4l-6.6,8C169.6,347.4,183.8,360.1,209,360.1 M630.4,294.9v37.7c0,0-37-29.5-40-32
			c-5.5-4.4-8-5.7-14.1-5.7h-4.5v63.2h13V321c0,0,36.7,29.3,39.8,31.7c5.5,4.4,8.3,5.4,14.4,5.4h4.5v-63.2H630.4z M478,358.1h-11.8
			c-7,0-11.3-4.9-13.9-8.2c-2.8-3.7-10-13.1-10-13.1h-1.2h-17.8h-0.2v21.4h-17.5v-63.2h17.7h17.8c13.6,0,33.1,1.4,33.2,20.9v0
			c0,11.3-6.6,16.5-14.8,18.9L478,358.1z M455.3,315.8L455.3,315.8c0-6.6-4.2-9.9-13.5-9.9h-18.5l-0.2-0.1v20l0.2-0.1h18.5
			C451.1,325.7,455.3,322.4,455.3,315.8"/>
	</g>
	<g class="st0">
		<defs>
			<path id="SVGID_5_" d="M136.5,353.7c-13,17.8-34,29.4-57.7,29.4c-23.7,0-44.7-11.6-57.7-29.4h-1.4c10.5,22.1,33,37.3,59.1,37.3
				c26.1,0,48.6-15.3,59.1-37.3H136.5z"/>
		</defs>
		<clipPath id="SVGID_6_">
			<use xlink:href="#SVGID_5_"  style="overflow:visible;"/>
		</clipPath>
		
			<radialGradient id="SVGID_7_" cx="2.886372e-08" cy="651.968" r="1" gradientTransform="matrix(66.0811 0 0 66.0811 78.836 -42710.3516)" gradientUnits="userSpaceOnUse">
			<stop  offset="0" style="stop-color:#84CFED"/>
			<stop  offset="0.2221" style="stop-color:#59A7D5"/>
			<stop  offset="0.4545" style="stop-color:#3284C0"/>
			<stop  offset="0.6694" style="stop-color:#176BB1"/>
			<stop  offset="0.858" style="stop-color:#065BA7"/>
			<stop  offset="1" style="stop-color:#0056A4"/>
		</radialGradient>
		<rect x="19.7" y="353.7" class="st2" width="118.2" height="37.3"/>
	</g>
	<g class="st0">
		<defs>
			<path id="SVGID_8_" d="M37.1,285.7c-7.8,5.8-10.9,11.7-12,17.2c-5.5,26.9,47.7,37.6,68.1,44.3c11.2,3.6,12.7,8.5,12.6,12.4
				c-0.2,9-12.9,17.1-13,17.1c10.4-0.2,24.4-6.3,32.8-15.8c3.2-3.6,6-8.4,6.7-11.9c3.1-16.1-11.9-24.3-29.6-30.5
				c-13.8-4.8-25.2-8.1-34.9-11.1c-15.4-4.7-18-9.2-17.9-14.1c0.1-5.7,6.2-12.9,13-17.1C62.8,276,50,276,37.1,285.7"/>
		</defs>
		<clipPath id="SVGID_9_">
			<use xlink:href="#SVGID_8_"  style="overflow:visible;"/>
		</clipPath>
		
			<linearGradient id="SVGID_10_" gradientUnits="userSpaceOnUse" x1="0" y1="651.968" x2="1" y2="651.968" gradientTransform="matrix(89.967 51.0253 -51.0253 89.967 33310.3945 -58348.5742)">
			<stop  offset="0" style="stop-color:#57BCEC"/>
			<stop  offset="7.569695e-02" style="stop-color:#4CB1E3"/>
			<stop  offset="0.3373" style="stop-color:#2B8FC9"/>
			<stop  offset="0.5855" style="stop-color:#1376B6"/>
			<stop  offset="0.8129" style="stop-color:#0567AB"/>
			<stop  offset="1" style="stop-color:#0062A7"/>
		</linearGradient>
		<polygon class="st3" points="-23.6,352.1 107.2,426.3 178.6,300.5 47.8,226.3 		"/>
	</g>
	<g class="st0">
		<defs>
			<rect id="SVGID_11_" y="0" width="652" height="652"/>
		</defs>
		<clipPath id="SVGID_12_">
			<use xlink:href="#SVGID_11_"  style="overflow:visible;"/>
		</clipPath>
		<g class="st4">
			<g>
				<defs>
					<rect id="SVGID_13_" x="7.9" y="238.9" width="165.7" height="166.6"/>
				</defs>
				<clipPath id="SVGID_14_">
					<use xlink:href="#SVGID_13_"  style="overflow:visible;"/>
				</clipPath>
				<g class="st5">
					<defs>
						<path id="SVGID_15_" d="M48.9,292.4c-0.1,0.6-0.2,1.1-0.2,1.7v0.4c0.1,5.1,5,9.6,18,13.6c9.7,3,21.1,6.3,34.9,11.1
							c17.7,6.2,32.3,13.4,29.1,29.6c-0.9,4.3-5.3,12.2-15.8,19.6c3.2-1.4,8.2-4.6,10.9-7.6c3.2-3.6,6-8.4,6.7-11.9
							c0.3-1.4,0.4-2.7,0.4-4v-0.2c-0.1-13.4-13.9-20.7-30-26.3c-13.8-4.8-25.2-8.1-34.9-11.1c-15.4-4.7-18-9.2-17.9-14.1
							c0.1-5.7,6.2-12.9,13-17.1C53.1,282.1,49.7,288,48.9,292.4"/>
					</defs>
					<clipPath id="SVGID_16_">
						<use xlink:href="#SVGID_15_"  style="overflow:visible;"/>
					</clipPath>
					
						<linearGradient id="SVGID_17_" gradientUnits="userSpaceOnUse" x1="0" y1="651.9719" x2="1" y2="651.9719" gradientTransform="matrix(-56.0093 -31.9471 31.9471 -56.0093 -20715.1602 36851.3359)">
						<stop  offset="0" style="stop-color:#84CFED"/>
						<stop  offset="0.3087" style="stop-color:#57A6D4"/>
						<stop  offset="0.7775" style="stop-color:#196DB2"/>
						<stop  offset="1" style="stop-color:#0056A4"/>
					</linearGradient>
					<polygon class="st6" points="173.6,298.7 69.6,239.3 8.9,345.7 113,405 					"/>
				</g>
			</g>
		</g>
		<g class="st7">
			<g>
				<defs>
					<rect id="SVGID_18_" x="59.3" y="289.6" width="94.5" height="93.3"/>
				</defs>
				<clipPath id="SVGID_19_">
					<use xlink:href="#SVGID_18_"  style="overflow:visible;"/>
				</clipPath>
				<g class="st8">
					<defs>
						<path id="SVGID_20_" d="M83.1,313.7c-1.6,0-2.5,0.6-2.5,1.4v0.2c0.1,1.1,1.8,2.7,5.6,3.9c4.2,1.4,9.7,3.3,14.3,4.7
							c15.1,5,29,11.3,26.4,26.9c-0.6,3.2-1,4.6-3.5,7.9c0.4-0.5,7.3-3.5,8.4-11.2c0.1-0.8,0.2-1.6,0.2-2.4v-0.5
							c-0.2-13.1-14.9-20.1-30.5-25.5c-4.2-1.5-9.8-3.3-14.5-4.8c-1.4-0.4-2.5-0.6-3.5-0.7H83.1z"/>
					</defs>
					<clipPath id="SVGID_21_">
						<use xlink:href="#SVGID_20_"  style="overflow:visible;"/>
					</clipPath>
					<defs>
						<filter id="Adobe_OpacityMaskFilter" filterUnits="userSpaceOnUse" x="18.1" y="247.9" width="176.9" height="176.7">
							<feColorMatrix  type="matrix" values="1 0 0 0 0  0 1 0 0 0  0 0 1 0 0  0 0 0 1 0"/>
						</filter>
					</defs>
					<mask maskUnits="userSpaceOnUse" x="18.1" y="247.9" width="176.9" height="176.7" id="SVGID_22_">
						<g class="st9">
							<rect x="59.3" y="289.6" class="st10" width="94.5" height="93.3"/>
							<g class="st11">
								<g>
									<defs>
										<rect id="SVGID_23_" x="59.3" y="289.6" width="94.5" height="93.3"/>
									</defs>
									<clipPath id="SVGID_24_" class="st10">
										<use xlink:href="#SVGID_23_"  style="overflow:visible;"/>
									</clipPath>
									<g>
										<defs>
											
												<rect id="SVGID_25_" x="71.2" y="299.2" transform="matrix(0.5151 -0.8571 0.8571 0.5151 -236.222 253.2424)" width="69.1" height="72.3"/>
										</defs>
										<clipPath id="SVGID_26_" class="st12">
											<use xlink:href="#SVGID_25_"  style="overflow:visible;"/>
										</clipPath>
										
											<linearGradient id="SVGID_27_" gradientUnits="userSpaceOnUse" x1="0" y1="651.968" x2="1" y2="651.968" gradientTransform="matrix(-6.0572 10.077 -10.077 -6.0572 6684.7158 4269.3188)">
											<stop  offset="0" style="stop-color:#FFFFFF"/>
											<stop  offset="8.148190e-02" style="stop-color:#FFFFFF"/>
											<stop  offset="0.2759" style="stop-color:#BFBBBA"/>
											<stop  offset="0.4648" style="stop-color:#878180"/>
											<stop  offset="0.6368" style="stop-color:#5C5452"/>
											<stop  offset="0.7888" style="stop-color:#3D3330"/>
											<stop  offset="0.9151" style="stop-color:#2A1F1C"/>
											<stop  offset="1" style="stop-color:#231815"/>
										</linearGradient>
										<polygon class="st13" points="82.8,244.1 14.3,358 128.6,426.7 197.1,312.8 										"/>
									</g>
								</g>
							</g>
						</g>
					</mask>
					<g class="st14">
						<g>
							<defs>
								<rect id="SVGID_28_" x="59.3" y="289.6" width="94.5" height="93.3"/>
							</defs>
							<clipPath id="SVGID_29_">
								<use xlink:href="#SVGID_28_"  style="overflow:visible;"/>
							</clipPath>
							<g class="st15">
								<defs>
									
										<rect id="SVGID_30_" x="73.2" y="301.2" transform="matrix(0.5152 -0.8571 0.8571 0.5152 -236.5281 254.3407)" width="66.8" height="70.1"/>
								</defs>
								<clipPath id="SVGID_31_">
									<use xlink:href="#SVGID_30_"  style="overflow:visible;"/>
								</clipPath>
								
									<linearGradient id="SVGID_32_" gradientUnits="userSpaceOnUse" x1="0" y1="651.968" x2="1" y2="651.968" gradientTransform="matrix(-6.0572 10.077 -10.077 -6.0572 6685.6948 4269.9072)">
									<stop  offset="0" style="stop-color:#FFFFFF"/>
									<stop  offset="8.148190e-02" style="stop-color:#FFFFFF"/>
									<stop  offset="1" style="stop-color:#FFFFFF"/>
								</linearGradient>
								<polygon class="st16" points="84.4,247.9 18.1,358.1 128.7,424.6 195,314.3 								"/>
							</g>
						</g>
					</g>
				</g>
			</g>
		</g>
		<g class="st17">
			<g>
				<defs>
					<rect id="SVGID_33_" x="61.1" y="303.2" width="94" height="94.2"/>
				</defs>
				<clipPath id="SVGID_34_">
					<use xlink:href="#SVGID_33_"  style="overflow:visible;"/>
				</clipPath>
				<g class="st18">
					<defs>
						<path id="SVGID_35_" d="M86.7,343.1c2.8,0.8,5.3,1.6,7.6,2.2c11.5,3.3,15.3,8.1,14,15.4c-1.4,7.7-14,15-15.5,15.9
							c8.8-0.8,23.7-8.4,30.5-17.8c2.5-3.3,2.9-4.8,3.5-8c2.5-15.5-11.3-21.9-26.4-26.9L86.7,343.1z"/>
					</defs>
					<clipPath id="SVGID_36_">
						<use xlink:href="#SVGID_35_"  style="overflow:visible;"/>
					</clipPath>
					
						<linearGradient id="SVGID_37_" gradientUnits="userSpaceOnUse" x1="0" y1="651.968" x2="1" y2="651.968" gradientTransform="matrix(31.0042 24.6707 -24.6707 31.0042 16175.0908 -19877.3789)">
						<stop  offset="0" style="stop-color:#FFFFFF"/>
						<stop  offset="1" style="stop-color:#0069B4"/>
					</linearGradient>
					<polygon class="st19" points="61.1,356.2 112.9,397.4 155,344.4 103.3,303.2 					"/>
				</g>
			</g>
		</g>
		<g class="st4">
			<g>
				<defs>
					<rect id="SVGID_38_" x="20.6" y="303.6" width="89.1" height="73"/>
				</defs>
				<clipPath id="SVGID_39_">
					<use xlink:href="#SVGID_38_"  style="overflow:visible;"/>
				</clipPath>
				<g class="st20">
					<defs>
						<path id="SVGID_40_" d="M92.8,376.6C92.8,376.6,92.9,376.6,92.8,376.6C92.8,376.6,92.8,376.6,92.8,376.6"/>
					</defs>
					<clipPath id="SVGID_41_">
						<use xlink:href="#SVGID_40_"  style="overflow:visible;"/>
					</clipPath>
					
						<linearGradient id="SVGID_42_" gradientUnits="userSpaceOnUse" x1="0" y1="651.968" x2="1" y2="651.968" gradientTransform="matrix(83.9361 0 0 83.9361 24.6878 -54347.0586)">
						<stop  offset="0" style="stop-color:#84CFED"/>
						<stop  offset="0.3087" style="stop-color:#57A6D4"/>
						<stop  offset="0.7775" style="stop-color:#196DB2"/>
						<stop  offset="1" style="stop-color:#0056A4"/>
					</linearGradient>
					<rect x="92.8" y="376.6" class="st21" width="0" height="0"/>
				</g>
				<g class="st20">
					<defs>
						<path id="SVGID_43_" d="M93.2,347.1c11.2,3.6,12.7,8.5,12.6,12.4c-0.2,8.7-12.1,16.6-12.9,17.1c1.7-1,14.1-8.3,15.5-15.9
							c1.3-7.3-2.5-12.1-14-15.4c-6-1.7-13.4-3.9-22.2-6.6c-6.8-2-15.4-5.1-23.5-8.6c-21.5-9.5-24.3-21.1-23.7-26.5
							C20.6,330,73,340.6,93.2,347.1"/>
					</defs>
					<clipPath id="SVGID_44_">
						<use xlink:href="#SVGID_43_"  style="overflow:visible;"/>
					</clipPath>
					
						<linearGradient id="SVGID_45_" gradientUnits="userSpaceOnUse" x1="0" y1="651.968" x2="1" y2="651.968" gradientTransform="matrix(83.9361 0 0 83.9361 24.6878 -54383.5352)">
						<stop  offset="0" style="stop-color:#84CFED"/>
						<stop  offset="0.3087" style="stop-color:#57A6D4"/>
						<stop  offset="0.7775" style="stop-color:#196DB2"/>
						<stop  offset="1" style="stop-color:#0056A4"/>
					</linearGradient>
					<rect x="20.6" y="303.6" class="st22" width="89.1" height="72.9"/>
				</g>
			</g>
		</g>
	</g>
	<g class="st0">
		<defs>
			<path id="SVGID_46_" d="M19.7,297.6L19.7,297.6L19.7,297.6l1.4,0c13-17.8,34-29.4,57.7-29.4c23.7,0,44.7,11.6,57.7,29.4h1.4h0
				l0,0c-10.5-22.1-33-37.3-59.1-37.3C52.8,260.2,30.2,275.5,19.7,297.6"/>
		</defs>
		<clipPath id="SVGID_47_">
			<use xlink:href="#SVGID_46_"  style="overflow:visible;"/>
		</clipPath>
		
			<linearGradient id="SVGID_48_" gradientUnits="userSpaceOnUse" x1="0" y1="651.968" x2="1" y2="651.968" gradientTransform="matrix(16.1333 129.8843 -129.8843 16.1333 84756.7344 -10259.5088)">
			<stop  offset="0" style="stop-color:#84CFED"/>
			<stop  offset="5.023735e-03" style="stop-color:#81CDEC"/>
			<stop  offset="7.922088e-02" style="stop-color:#5FADD8"/>
			<stop  offset="0.1597" style="stop-color:#4292C8"/>
			<stop  offset="0.2495" style="stop-color:#2A7CBB"/>
			<stop  offset="0.3507" style="stop-color:#176BB1"/>
			<stop  offset="0.4698" style="stop-color:#0A5FA9"/>
			<stop  offset="0.6239" style="stop-color:#0258A5"/>
			<stop  offset="0.9388" style="stop-color:#0056A4"/>
			<stop  offset="1" style="stop-color:#0056A4"/>
		</linearGradient>
		<polygon class="st23" points="15.2,260.8 21.5,312 142.5,297 136.1,245.8 		"/>
	</g>
</g>
</svg>
